<?xml version="1.0" encoding="UTF-8" standalone="no"?>
<svg
   version="1.1"
   id="Layer_1"
   x="0px"
   y="0px"
   width="750px"
   height="630.4550170898438px"
   viewBox="0 0 750 630.455"
   enable-background="new 0 0 750 630.455"
   xml:space="preserve"
   sodipodi:docname="disconnected.svg"
   inkscape:version="1.1.1 (3bf5ae0d25, 2021-09-20)"
   xmlns:inkscape="http://www.inkscape.org/namespaces/inkscape"
   xmlns:sodipodi="http://sodipodi.sourceforge.net/DTD/sodipodi-0.dtd"
   xmlns="http://www.w3.org/2000/svg"
   xmlns:svg="http://www.w3.org/2000/svg"><defs
   id="defs147" /><sodipodi:namedview
   id="namedview145"
   pagecolor="#ffffff"
   bordercolor="#666666"
   borderopacity="1.0"
   inkscape:pageshadow="2"
   inkscape:pageopacity="0.0"
   inkscape:pagecheckerboard="0"
   showgrid="false"
   inkscape:zoom="1.2832002"
   inkscape:cx="221.71131"
   inkscape:cy="315.22751"
   inkscape:window-width="1920"
   inkscape:window-height="1017"
   inkscape:window-x="-8"
   inkscape:window-y="-8"
   inkscape:window-maximized="1"
   inkscape:current-layer="g86" /><rect
   id="svgEditorBackground"
   x="0"
   y="0"
   width="750"
   height="630.4550170898438"
   style="fill:none;stroke:none;" />
<g
   id="g86"
   transform="translate(0,-2.3379049)">
	<path
   d="m 664.368,213.96 c -6.72,-16.682 -20.542,-20.877 -21.818,-22.003 -11.701,-10.336 -2.474,-21.214 -19.946,-30.695 -18.281,-9.914 -71.979,-36.997 -114.22,-31.375 -9.225,1.235 -27.837,17.608 -41.214,17.608 -21.865,0 -92.165,0 -92.165,0 0,0 -70.3,0 -92.165,0 -13.377,0 -31.99,-16.374 -41.215,-17.608 -42.248,-5.622 -95.939,21.461 -114.22,31.375 -17.472,9.481 -8.243,20.359 -19.941,30.695 -1.281,1.125 -15.104,5.321 -21.823,22.003 -62.752,156.024 -87.382,255.154 -85.546,315.169 2.891,94.416 76.578,101.326 76.578,101.326 37.033,-8.617 111.55,-129.135 168.535,-129.135 31.16,0 129.797,0 129.797,0 0,0 98.637,0 129.797,0 56.985,0 131.502,120.518 168.538,129.135 0,0 73.678,-6.91 76.563,-101.326 1.864,-60.015 -22.81,-159.145 -85.535,-315.169 z"
   style="fill:#018fa7"
   id="path80" />
	<path
   d="m 548.358,114.946 50.436,6.849 C 586.728,4.974 555.822,10.762 549.08,5.466 548.678,5.147 548.275,4.848 547.869,4.567 541.453,0.091 534.303,-0.306 522.043,0.142 511.22,0.545 509.98,11.581 509.861,15.332 v 1.227 c 0,0 2.9,40.716 0,93.094 9.787,2.256 37.718,5.211 38.497,5.293 z"
   style="fill:#381380;fill-opacity:1"
   id="path82" />
	<path
   d="m 201.676,114.95 c 0,0 28.613,-3.009 38.539,-5.298 -2.901,-52.378 0,-93.094 0,-93.094 V 15.331 C 240.091,11.58 238.855,0.544 228.022,0.141 215.773,-0.307 208.624,0.09 202.207,4.566 c -0.407,0.281 -0.811,0.58 -1.211,0.899 -6.756,5.296 -37.648,-0.492 -49.715,116.329 l 50.395,-6.846 z"
   style="fill:#381380;fill-opacity:1"
   id="path84" />
<path
   style="fill:#381380;fill-opacity:1;stroke-width:0.779302"
   d="m 570.44879,115.33949 c -14.78725,-2.03522 -33.0229,-4.46503 -40.52368,-5.39958 -7.50078,-0.93456 -14.82109,-1.94907 -16.26736,-2.25448 l -2.62957,-0.55527 -0.005,-49.863399 c -0.003,-31.886523 0.2796,-50.5657848 0.78453,-51.8116496 1.05602,-2.6055962 4.72318,-6.18850694 6.74482,-6.5898597 8.21597,-1.6311002 20.70035,-0.6564984 25.71918,2.00778581 1.75326,0.93073339 6.59254,3.37756749 10.75396,5.43740889 5.5942,2.7690574 8.74242,4.9426016 12.07917,8.3395246 13.01654,13.251277 22.66807,41.522865 28.59565,83.76334 2.62482,18.704809 2.85116,20.833019 2.20385,20.723209 -0.31327,-0.0532 -12.66823,-1.76181 -27.45548,-3.79703 z"
   id="path8330"
   transform="translate(0,2.3379049)" /><path
   style="fill:#381380;fill-opacity:1;stroke-width:0.779302"
   d="M 68.821756,626.14592 C 40.768182,618.58731 18.182734,597.58904 8.2844002,569.86278 2.7855738,554.46 0.70577732,540.69652 0.71854595,519.79419 0.73208476,497.63113 3.1473885,476.77896 9.0681844,447.70879 20.473039,391.71276 45.136444,314.9264 79.529851,228.33538 c 10.540623,-26.53772 13.489766,-30.78311 25.721369,-37.02671 4.72902,-2.41391 7.51388,-6.65149 9.83578,-14.96654 3.16634,-11.33913 5.29104,-13.45839 22.04985,-21.99338 38.07142,-19.38917 78.34784,-29.93148 101.68479,-26.61589 5.55102,0.78866 7.46829,1.57902 18.31359,7.54952 6.66242,3.66775 14.65012,7.5255 17.75046,8.57276 l 5.63698,1.90411 96.06188,-0.20975 96.06189,-0.20975 5.45511,-2.37647 c 3.00031,-1.30706 9.488,-4.65613 14.41708,-7.44237 11.95309,-6.75668 14.2804,-7.5932 22.76601,-8.18295 24.05918,-1.6721 59.78824,8.16796 96.36662,26.54011 17.69369,8.88698 19.75772,10.79647 22.78088,21.07515 3.21281,10.92352 5.2797,13.93738 11.83707,17.26025 4.90644,2.48628 10.97496,8.10369 14.18711,13.13251 5.2994,8.29653 31.18811,76.49359 48.0442,126.5599 21.78564,64.7082 34.10185,114.23137 39.36234,158.27484 1.87152,15.66931 1.88175,43.21682 0.0205,55.14709 -5.56884,35.6948 -22.45105,60.75803 -50.01875,74.25754 -9.55864,4.68072 -18.93236,7.75246 -23.65741,7.75246 -1.45617,0 -4.79473,-1.05902 -7.41903,-2.35336 -11.11041,-5.47986 -21.98253,-15.27395 -55.22366,-49.74792 -48.10834,-49.89256 -67.53797,-65.61977 -91.77032,-74.28292 l -5.06546,-1.81092 -137.52092,-0.20756 c -135.68416,-0.20477 -137.60453,-0.18655 -143.78115,1.36465 -14.94096,3.75228 -32.83596,15.04378 -53.51878,33.76961 -4.43953,4.01947 -15.94936,15.33957 -25.57741,25.15579 -50.31708,51.30049 -60.601845,60.80067 -71.334847,65.89295 -5.15494,2.44577 -8.114557,2.66038 -14.173867,1.02779 z M 258.9645,353.75049 c 6.9897,-1.94097 10.18021,-8.43493 6.79683,-13.83427 -1.16986,-1.86692 -3.24733,-3.32799 -7.46478,-5.24994 -6.38077,-2.90781 -7.49715,-4.27753 -5.3869,-6.60932 1.69479,-1.87273 6.74573,-2.05247 9.99891,-0.35582 1.22768,0.64028 2.36741,1.16415 2.53273,1.16415 0.71797,0 0.21952,-6.97182 -0.53166,-7.43608 -0.45771,-0.28288 -2.82484,-0.69326 -5.26028,-0.91195 -8.98319,-0.80663 -15.72794,3.05878 -15.72794,9.01368 0,5.38803 1.236,6.92906 8.23796,10.27096 3.512,1.6762 6.59409,3.59135 6.84909,4.25586 0.26041,0.67861 -0.21181,1.88365 -1.0773,2.74914 -1.98612,1.98613 -6.32653,1.98747 -10.69772,0.003 l -3.31203,-1.50339 v 3.83612 c 0,3.6584 0.11735,3.87001 2.53273,4.56743 3.48819,1.00718 8.96463,1.02474 12.51036,0.0401 z m 36.25382,-0.65354 c 1.35259,-0.72387 1.6956,-1.61133 1.6956,-4.38689 0,-3.24872 -0.85884,-4.46284 -1.93042,-2.72899 -0.85798,1.38824 -5.75208,2.27164 -8.4532,1.52582 -5.23504,-1.44546 -7.91144,-6.6595 -6.56868,-12.79684 1.54847,-7.07757 7.57706,-9.48777 15.58852,-6.2322 1.18016,0.47957 1.36378,0.077 1.36378,-2.99005 0,-1.94934 -0.3745,-3.7757 -0.83222,-4.05859 -1.7044,-1.05337 -9.80673,-1.27754 -13.18181,-0.36471 -4.45285,1.20433 -9.64093,6.24934 -10.82956,10.53091 -2.69257,9.69894 1.07549,18.98918 8.86791,21.86401 3.5128,1.29597 11.56308,1.09163 14.28008,-0.36247 z m 28.57893,0.61193 c 7.81102,-2.16846 12.6238,-11.50565 10.68785,-20.73533 -1.63409,-7.7906 -6.13414,-11.7424 -14.20488,-12.47422 -7.74108,-0.70194 -14.48984,2.69808 -17.19959,8.66514 -1.99969,4.40345 -2.00378,12.79024 -0.008,16.68167 3.74854,7.30953 11.76383,10.35043 20.72477,7.86274 z m 115.63808,-1.02794 c 2.10065,-1.08629 2.42869,-1.67427 2.42869,-4.35312 0,-1.70346 -0.13704,-3.0972 -0.30455,-3.0972 -0.16749,0 -1.83325,0.69367 -3.70168,1.54149 -4.05101,1.83819 -6.80771,1.96247 -10.38412,0.46816 -2.39446,-1.00048 -5.09219,-4.52177 -5.09219,-6.64676 0,-0.53218 3.81217,-0.818 10.91023,-0.818 h 10.91022 v -2.97576 c 0,-9.91314 -5.63353,-16.50678 -14.1032,-16.50678 -9.26789,0 -15.56942,6.89959 -15.60161,17.08231 -0.0377,11.93324 5.68632,17.64711 16.95037,16.92029 3.05753,-0.19729 6.65205,-0.92387 7.98784,-1.61463 z m 32.68446,0.41601 c 1.35563,-0.7255 1.6956,-1.61059 1.6956,-4.41431 0,-3.34153 -0.0786,-3.46479 -1.66723,-2.61458 -5.24194,2.8054 -10.21627,2.17828 -13.47906,-1.69933 -2.70932,-3.21984 -2.81015,-9.39078 -0.21643,-13.24512 2.93327,-4.35891 7.63865,-5.24934 13.99894,-2.64911 1.18066,0.48267 1.36378,0.0816 1.36378,-2.9867 0,-1.94934 -0.3745,-3.7757 -0.83222,-4.05859 -0.45772,-0.28288 -2.86398,-0.69857 -5.34725,-0.92374 -11.36868,-1.03088 -19.53748,6.39946 -19.53748,17.77129 0,6.61451 4.76618,13.77718 10.29567,15.47245 3.15932,0.9686 11.43161,0.57549 13.72568,-0.65226 z m 24.10052,0.9941 c 1.47831,-0.39616 1.75343,-1.00286 1.75343,-3.86657 0,-3.19498 -0.10412,-3.35819 -1.75343,-2.74856 -0.96438,0.35647 -2.27946,0.48279 -2.92238,0.28072 -2.598,-0.81656 -3.11721,-2.75481 -3.11721,-11.63694 v -8.81302 h 3.89651 3.89651 v -3.1172 -3.11721 h -3.89651 -3.89651 v -4.7667 c 0,-4.57166 -0.0718,-4.74627 -1.75342,-4.2674 -0.96439,0.27462 -2.71782,0.71004 -3.89651,0.9676 -1.98079,0.43284 -2.14308,0.756 -2.14308,4.26741 v 3.79909 h -2.72756 c -2.66261,0 -2.72755,0.0742 -2.72755,3.11721 0,3.04298 0.0649,3.1172 2.72755,3.1172 h 2.72756 v 10.80513 c 0,9.85778 0.14609,10.99085 1.66624,12.92341 0.91643,1.16505 2.40684,2.41752 3.31203,2.78325 1.95923,0.79162 6.40666,0.92854 8.85433,0.27258 z m 28.10824,-0.70795 4.03795,-1.19914 v -3.47667 c 0,-3.72122 -0.35728,-4.04211 -2.6046,-2.33929 -1.87554,1.42112 -6.88884,2.24368 -9.79046,1.60638 -2.82998,-0.62157 -6.00874,-3.6865 -6.50256,-6.26968 l -0.36879,-1.92919 h 10.80216 10.80216 v -4.55324 c 0,-9.52684 -5.88356,-15.33525 -14.93109,-14.74038 -8.9054,0.58553 -14.66715,7.39937 -14.66715,17.34537 0,8.01451 3.83683,14.12778 10.04834,16.01019 3.33156,1.00962 8.8898,0.81793 13.17404,-0.45435 z m 28.73005,0.36793 c 1.2066,-0.45717 2.98285,-1.57036 3.94724,-2.47375 l 1.75343,-1.64254 v 2.12483 c 0,2.07365 0.0985,2.11915 4.09133,1.88927 l 4.09133,-0.23555 v -23.7687 -23.7687 l -4.09133,-0.23555 -4.09133,-0.23555 v 9.52818 9.5282 l -1.89973,-1.78471 c -4.17527,-3.92246 -14.12765,-2.4992 -17.87825,2.55672 -2.65719,3.58198 -3.60107,7.05328 -3.60107,13.24362 0,8.17852 3.44708,14.15358 8.96197,15.5344 2.79057,0.6987 6.47599,0.5887 8.71641,-0.26017 z m -343.13491,-2.95886 c 8.99793,-4.42966 12.68432,-11.33427 12.01706,-22.50795 -0.42632,-7.13887 -2.3037,-11.36888 -6.63606,-14.95197 -4.45703,-3.6862 -9.08939,-4.72881 -21.01038,-4.72881 h -10.37913 v 22.69002 22.69001 l 10.37913,-0.3033 c 9.88187,-0.28877 10.63064,-0.42713 15.62938,-2.888 z m 26.984,-13.35457 v -16.36533 h -3.8965 -3.89651 v 16.36533 16.36534 h 3.89651 3.8965 z m 112.99874,5.4277 c 0,-12.04531 0.5389,-13.84506 4.65635,-15.55056 2.83932,-1.17608 5.14779,-0.45195 6.85229,2.14945 1.06298,1.62231 1.39515,4.31909 1.6245,13.18902 l 0.28831,11.14973 h 3.80985 3.80984 v -10.95478 c 0,-12.59137 -0.83765,-16.89706 -3.8484,-19.78155 -3.76769,-3.60967 -11.29042,-3.64234 -15.14958,-0.0658 l -2.04316,1.89352 v -1.91105 c 0,-1.79688 -0.25605,-1.91104 -4.28616,-1.91104 h -4.28616 v 16.36533 16.36534 h 4.28616 4.28616 z m 37.40648,-0.0238 c 0,-6.0288 0.36108,-11.63614 0.8024,-12.46076 1.17026,-2.18665 5.06735,-3.97456 7.39172,-3.39117 3.76128,0.94401 4.27471,2.78135 4.27471,15.29727 v 11.51615 h 4.28615 4.28616 v -10.95478 c 0,-12.78936 -0.8258,-16.88571 -4.02122,-19.94712 -2.03495,-1.9496 -2.89953,-2.21842 -7.13499,-2.21842 -3.79198,0 -5.35943,0.38513 -7.3522,1.80649 -2.49772,1.78153 -2.53273,1.78422 -2.53273,0.19483 0,-1.434 -0.47249,-1.61167 -4.28616,-1.61167 h -4.28616 v 16.36533 16.36534 h 4.28616 4.28616 v -10.9615 z M 236.46238,313.61324 c 2.792,-2.792 0.6522,-7.3477 -3.45119,-7.3477 -2.70455,0 -4.67581,1.807 -4.67581,4.28616 0,2.47916 1.97126,4.28616 4.67581,4.28616 1.22461,0 2.77765,-0.55108 3.45119,-1.22462 z"
   id="path8369"
   transform="translate(0,2.3379049)" /><path
   style="fill:#381380;fill-opacity:1;stroke-width:0.779302"
   d="m 191.7082,331.21083 v -15.74875 l 6.81889,0.27237 c 7.95295,0.31766 10.8639,1.84107 13.53953,7.08573 1.30594,2.55986 1.56512,4.25991 1.33728,8.7718 -0.50549,10.01013 -5.24566,14.45763 -16.04576,15.05506 l -5.64994,0.31254 z"
   id="path8408"
   transform="translate(0,2.3379049)" /><path
   style="fill:#381380;fill-opacity:1;stroke-width:0.779302"
   d="m 314.79568,346.96059 c -5.15518,-2.57303 -6.9707,-10.90555 -3.52272,-16.16784 3.2778,-5.00256 10.72902,-5.05332 13.75322,-0.0937 2.80985,4.60809 1.50209,14.05811 -2.20855,15.95926 -2.97017,1.52177 -5.39552,1.61316 -8.02195,0.30227 z"
   id="path8447"
   transform="translate(0,2.3379049)" /><path
   style="fill:#381380;fill-opacity:1;stroke-width:0.779302"
   d="m 422.38148,332.93519 c 0,-0.86912 2.44287,-4.29158 3.86075,-5.4089 2.72956,-2.15095 9.38738,-0.1411 9.38738,2.83386 0,0.39356 0.21286,1.27028 0.47303,1.94826 0.41,1.06844 -0.47262,1.23269 -6.62407,1.23269 -3.9034,0 -7.09709,-0.27266 -7.09709,-0.60591 z"
   id="path8486"
   transform="translate(0,2.3379049)" /><path
   style="fill:#381380;fill-opacity:1;stroke-width:0.779302"
   d="m 509.66326,332.3122 c 0,-2.19636 4.33556,-5.78482 6.9892,-5.78482 2.82517,0 6.25893,2.97334 6.25893,5.41969 0,1.48081 -0.47047,1.59403 -6.62406,1.59403 -5.51213,0 -6.62407,-0.20629 -6.62407,-1.2289 z"
   id="path8525"
   transform="translate(0,2.3379049)" /><path
   style="fill:#381380;fill-opacity:1;stroke-width:0.779302"
   d="m 548.0147,347.17373 c -4.32132,-1.87753 -6.16228,-9.00347 -3.78007,-14.63179 1.93348,-4.56812 5.74577,-6.54881 9.85054,-5.11788 3.45523,1.20449 4.6741,3.76337 4.6741,9.81273 0,6.11197 -1.15166,8.35702 -5.14228,10.02441 -3.06029,1.27866 -2.43554,1.28842 -5.60229,-0.0875 z"
   id="path8564"
   transform="translate(0,2.3379049)" /></g>
<g
   id="g112">
	<path
   fill="#FFFFFF"
   d="M184.219,353.411v-44.813h12.938c16.521,0,24.781,7.281,24.781,21.844c0,6.917-2.292,12.474-6.875,16.672   c-4.583,4.198-10.729,6.297-18.438,6.297H184.219z M191.625,314.911v32.219h5.938c5.229,0,9.297-1.438,12.203-4.313   s4.359-6.938,4.359-12.188c0-10.479-5.427-15.719-16.281-15.719H191.625z"
   id="path88" />
	<path
   fill="#FFFFFF"
   d="M232.969,314.692c-1.188,0-2.203-0.385-3.047-1.156c-0.844-0.771-1.266-1.75-1.266-2.938   s0.422-2.177,1.266-2.969c0.844-0.792,1.859-1.188,3.047-1.188c1.229,0,2.271,0.396,3.125,1.188   c0.854,0.792,1.281,1.781,1.281,2.969c0,1.125-0.427,2.089-1.281,2.891C235.239,314.292,234.198,314.692,232.969,314.692z    M236.563,353.411h-7.25v-32h7.25V353.411z"
   id="path90" />
	<path
   fill="#FFFFFF"
   d="M244.031,352.411v-6.719c2.708,2.063,5.698,3.094,8.969,3.094c4.375,0,6.563-1.292,6.563-3.875   c0-0.729-0.188-1.349-0.563-1.859c-0.375-0.51-0.88-0.963-1.516-1.359c-0.636-0.396-1.386-0.75-2.25-1.063   c-0.865-0.313-1.828-0.667-2.891-1.063c-1.313-0.521-2.495-1.073-3.547-1.656c-1.052-0.583-1.927-1.245-2.625-1.984   c-0.698-0.739-1.224-1.578-1.578-2.516c-0.354-0.938-0.531-2.031-0.531-3.281c0-1.542,0.364-2.901,1.094-4.078   c0.729-1.177,1.708-2.167,2.938-2.969c1.229-0.802,2.625-1.406,4.188-1.813s3.177-0.609,4.844-0.609   c2.958,0,5.604,0.448,7.938,1.344v6.344c-2.25-1.542-4.833-2.313-7.75-2.313c-0.917,0-1.745,0.094-2.484,0.281   c-0.74,0.188-1.37,0.448-1.891,0.781c-0.521,0.333-0.927,0.734-1.219,1.203c-0.292,0.469-0.438,0.984-0.438,1.547   c0,0.688,0.146,1.271,0.438,1.75c0.292,0.479,0.724,0.901,1.297,1.266c0.573,0.365,1.26,0.698,2.063,1   c0.802,0.302,1.724,0.63,2.766,0.984c1.375,0.563,2.609,1.136,3.703,1.719c1.094,0.583,2.026,1.245,2.797,1.984   c0.771,0.74,1.364,1.594,1.781,2.563c0.417,0.969,0.625,2.12,0.625,3.453c0,1.625-0.375,3.042-1.125,4.25   c-0.75,1.208-1.75,2.208-3,3c-1.25,0.792-2.693,1.38-4.328,1.766c-1.636,0.385-3.359,0.578-5.172,0.578   C249.625,354.161,246.594,353.578,244.031,352.411z"
   id="path92" />
	<path
   fill="#FFFFFF"
   d="M296.531,351.942c-2.563,1.479-5.594,2.219-9.094,2.219c-4.75,0-8.583-1.484-11.5-4.453   c-2.917-2.969-4.375-6.817-4.375-11.547c0-5.271,1.567-9.505,4.703-12.703c3.135-3.198,7.328-4.797,12.578-4.797   c2.917,0,5.489,0.511,7.719,1.531v6.75c-2.229-1.667-4.604-2.5-7.125-2.5c-3.063,0-5.573,1.037-7.531,3.109   c-1.958,2.073-2.938,4.787-2.938,8.141c0,3.313,0.922,5.927,2.766,7.844c1.844,1.917,4.317,2.875,7.422,2.875   c2.604,0,5.063-0.927,7.375-2.781V351.942z"
   id="path94" />
	<path
   fill="#FFFFFF"
   d="M317.906,354.161c-4.938,0-8.88-1.495-11.828-4.484c-2.948-2.989-4.422-6.953-4.422-11.891   c0-5.375,1.536-9.573,4.609-12.594c3.073-3.021,7.213-4.531,12.422-4.531c5,0,8.896,1.469,11.688,4.406   c2.792,2.938,4.188,7.011,4.188,12.219c0,5.104-1.505,9.193-4.516,12.266C327.036,352.625,322.989,354.161,317.906,354.161z    M318.25,326.442c-2.833,0-5.073,0.99-6.719,2.969c-1.646,1.979-2.469,4.708-2.469,8.188c0,3.354,0.833,5.995,2.5,7.922   c1.667,1.927,3.896,2.891,6.688,2.891c2.854,0,5.047-0.948,6.578-2.844c1.531-1.896,2.297-4.594,2.297-8.094   c0-3.521-0.766-6.239-2.297-8.156C323.297,327.401,321.104,326.442,318.25,326.442z"
   id="path96" />
	<path
   fill="#FFFFFF"
   d="M370.438,353.411h-7.25V335.38c0-5.979-2.115-8.969-6.344-8.969c-2.208,0-4.031,0.828-5.469,2.484   s-2.156,3.745-2.156,6.266v18.25h-7.281v-32h7.281v5.313h0.125c2.396-4.042,5.854-6.063,10.375-6.063   c3.479,0,6.135,1.13,7.969,3.391c1.833,2.261,2.75,5.526,2.75,9.797V353.411z"
   id="path98" />
	<path
   fill="#FFFFFF"
   d="M407.781,353.411h-7.25V335.38c0-5.979-2.115-8.969-6.344-8.969c-2.208,0-4.031,0.828-5.469,2.484   s-2.156,3.745-2.156,6.266v18.25h-7.281v-32h7.281v5.313h0.125c2.396-4.042,5.854-6.063,10.375-6.063   c3.479,0,6.135,1.13,7.969,3.391c1.833,2.261,2.75,5.526,2.75,9.797V353.411z"
   id="path100" />
	<path
   fill="#FFFFFF"
   d="M443.719,339.38h-21.813c0.083,2.958,0.995,5.24,2.734,6.844c1.739,1.604,4.13,2.406,7.172,2.406   c3.417,0,6.552-1.021,9.406-3.063v5.844c-2.917,1.833-6.771,2.75-11.563,2.75c-4.708,0-8.401-1.453-11.078-4.359   c-2.677-2.906-4.016-6.995-4.016-12.266c0-4.979,1.474-9.036,4.422-12.172c2.948-3.135,6.609-4.703,10.984-4.703   s7.76,1.406,10.156,4.219c2.396,2.813,3.594,6.719,3.594,11.719V339.38z M436.719,334.255c-0.021-2.604-0.636-4.63-1.844-6.078   c-1.208-1.448-2.875-2.172-5-2.172c-2.083,0-3.849,0.761-5.297,2.281c-1.448,1.521-2.339,3.511-2.672,5.969H436.719z"
   id="path102" />
	<path
   fill="#FFFFFF"
   d="M473.531,351.942c-2.563,1.479-5.594,2.219-9.094,2.219c-4.75,0-8.583-1.484-11.5-4.453   c-2.917-2.969-4.375-6.817-4.375-11.547c0-5.271,1.567-9.505,4.703-12.703c3.135-3.198,7.328-4.797,12.578-4.797   c2.917,0,5.489,0.511,7.719,1.531v6.75c-2.229-1.667-4.604-2.5-7.125-2.5c-3.063,0-5.573,1.037-7.531,3.109   c-1.958,2.073-2.938,4.787-2.938,8.141c0,3.313,0.922,5.927,2.766,7.844c1.844,1.917,4.317,2.875,7.422,2.875   c2.604,0,5.063-0.927,7.375-2.781V351.942z"
   id="path104" />
	<path
   fill="#FFFFFF"
   d="M497.594,353.067c-1.417,0.708-3.281,1.063-5.594,1.063c-6.208,0-9.313-2.979-9.313-8.938v-18.094h-5.344   v-5.688h5.344v-7.406l7.25-2.063v9.469h7.656v5.688h-7.656v16c0,1.896,0.344,3.25,1.031,4.063s1.833,1.219,3.438,1.219   c1.229,0,2.292-0.354,3.188-1.063V353.067z"
   id="path106" />
	<path
   fill="#FFFFFF"
   d="M530.563,339.38H508.75c0.083,2.958,0.995,5.24,2.734,6.844c1.739,1.604,4.13,2.406,7.172,2.406   c3.417,0,6.552-1.021,9.406-3.063v5.844c-2.917,1.833-6.771,2.75-11.563,2.75c-4.708,0-8.401-1.453-11.078-4.359   c-2.677-2.906-4.016-6.995-4.016-12.266c0-4.979,1.474-9.036,4.422-12.172c2.948-3.135,6.609-4.703,10.984-4.703   s7.76,1.406,10.156,4.219c2.396,2.813,3.594,6.719,3.594,11.719V339.38z M523.563,334.255c-0.021-2.604-0.636-4.63-1.844-6.078   c-1.208-1.448-2.875-2.172-5-2.172c-2.083,0-3.849,0.761-5.297,2.281c-1.448,1.521-2.339,3.511-2.672,5.969H523.563z"
   id="path108" />
	<path
   fill="#FFFFFF"
   d="M566.563,353.411h-7.25v-5.438h-0.125c-2.333,4.125-5.927,6.188-10.781,6.188   c-3.938,0-7.089-1.432-9.453-4.297c-2.365-2.864-3.547-6.766-3.547-11.703c0-5.292,1.307-9.531,3.922-12.719   c2.614-3.188,6.099-4.781,10.453-4.781c4.313,0,7.448,1.729,9.406,5.188h0.125v-19.813h7.25V353.411z M559.406,338.786v-4.188   c0-2.271-0.74-4.198-2.219-5.781c-1.479-1.583-3.365-2.375-5.656-2.375c-2.708,0-4.839,1.011-6.391,3.031   c-1.552,2.021-2.328,4.823-2.328,8.406c0,3.25,0.745,5.818,2.234,7.703c1.489,1.886,3.495,2.828,6.016,2.828   c2.479,0,4.489-0.911,6.031-2.734C558.635,343.854,559.406,341.557,559.406,338.786z"
   id="path110" />
</g>
<g
   id="g114">
</g>
<g
   id="g116">
</g>
<g
   id="g118">
</g>
<g
   id="g120">
</g>
<g
   id="g122">
</g>
<g
   id="g124">
</g>
<g
   id="g126">
</g>
<g
   id="g128">
</g>
<g
   id="g130">
</g>
<g
   id="g132">
</g>
<g
   id="g134">
</g>
<g
   id="g136">
</g>
<g
   id="g138">
</g>
<g
   id="g140">
</g>
<g
   id="g142">
</g>
</svg>
